<svg width="246" height="62" fill="none" xmlns="http://www.w3.org/2000/svg"><path d="M5.689 29.75l117.287 31.474L240.263 29.75H5.689z" stroke="#fff" stroke-width="1.5"/><path d="M50.752 47.24c-2.72 0-5.168-.592-7.344-1.776-2.144-1.216-3.84-2.864-5.088-4.944-1.248-2.08-1.872-4.432-1.872-7.056 0-2.624.624-4.96 1.872-7.008a13.356 13.356 0 015.088-4.896c2.176-1.216 4.624-1.824 7.344-1.824 2.016 0 3.856.32 5.52.96 1.696.64 3.152 1.584 4.368 2.832l-1.536 1.632c-1.152-1.152-2.432-1.984-3.84-2.496-1.376-.512-2.864-.768-4.464-.768-2.272 0-4.304.512-6.096 1.536a11.258 11.258 0 00-4.272 4.128c-1.024 1.728-1.536 3.696-1.536 5.904 0 2.208.512 4.192 1.536 5.952a11.625 11.625 0 004.272 4.176c1.792.992 3.824 1.488 6.096 1.488 1.6 0 3.088-.256 4.464-.768 1.408-.512 2.688-1.344 3.84-2.496L60.64 43.4a11.576 11.576 0 01-4.368 2.88c-1.696.64-3.536.96-5.52.96zM67.97 47V19.976h2.4v12.288h17.76V19.976h2.448V47H88.13V34.328H70.37V47h-2.4zm35.343-14.736h14.832v2.064h-14.832v-2.064zm.432 12.672h16.704V47h-19.104V19.976h18.528v2.112h-16.128v22.848zM128.392 47V19.976h2.064l12.528 21.264h-.96l12.384-21.264h2.112V47h-2.352V23.672h.48l-11.616 19.776h-1.152l-11.76-19.776h.624V47h-2.352zm40.827-14.736h14.832v2.064h-14.832v-2.064zm.432 12.672h16.704V47h-19.104V19.976h18.528v2.112h-16.128v22.848zM194.298 47V19.976h2.4v24.96h15.552V47h-17.952z" fill="#fff"/></svg>