<svg width="203" height="30" fill="none" xmlns="http://www.w3.org/2000/svg"><path d="M15.5 0l3.48 10.365h11.261l-9.11 6.405 3.48 10.365L15.5 20.73l-9.11 6.405L9.87 16.77.758 10.365H12.02L15.5 0zm43 0l3.48 10.365h11.261l-9.11 6.405 3.48 10.365L58.5 20.73l-9.11 6.405 3.48-10.365-9.111-6.405H55.02L58.5 0zm43 0l3.48 10.365h11.261l-9.11 6.405 3.48 10.365-9.111-6.405-9.11 6.405 3.48-10.365-9.111-6.405H98.02L101.5 0zm43 0l3.48 10.365h11.261l-9.11 6.405 3.48 10.365-9.111-6.405-9.111 6.405 3.48-10.365-9.11-6.405h11.261L144.5 0zm43 0l3.48 10.365h11.261l-9.11 6.405 3.48 10.365-9.111-6.405-9.111 6.405 3.48-10.365-9.11-6.405h11.261L187.5 0z" fill="#A37868"/></svg>